<svg width="20" height="20" viewBox="0 0 20 20" fill="none" xmlns="http://www.w3.org/2000/svg">
<g id="icon">
<path id="Vector" d="M9.99996 18.3333C14.6 18.3333 18.3333 14.6 18.3333 10C18.3333 5.4 14.6 1.66667 9.99996 1.66667C5.39996 1.66667 1.66663 5.4 1.66663 10C1.66663 14.6 5.39996 18.3333 9.99996 18.3333Z" stroke="#18181B" stroke-width="1.5" stroke-linecap="round" stroke-linejoin="round"/>
<path id="Vector_2" d="M9.99996 13.3333C11.8416 13.3333 13.3333 11.8417 13.3333 10C13.3333 8.15833 11.8416 6.66666 9.99996 6.66666C8.15829 6.66666 6.66663 8.15833 6.66663 10C6.66663 11.8417 8.15829 13.3333 9.99996 13.3333Z" stroke="#18181B" stroke-width="1.5" stroke-linecap="round" stroke-linejoin="round"/>
<path id="Vector_3" d="M17.6417 6.66667C15.125 6.11667 12.5167 6.11667 10 6.66667" stroke="#18181B" stroke-width="1.5" stroke-linecap="round" stroke-linejoin="round"/>
<path id="Vector_4" d="M3.29163 5.05L3.30829 5.1C4.14996 7.50834 5.44163 9.74167 7.11663 11.6667" stroke="#18181B" stroke-width="1.5" stroke-linecap="round" stroke-linejoin="round"/>
<path id="Vector_5" d="M9.06665 18.2833C10.7833 16.3917 12.075 14.1583 12.8583 11.7333L12.8833 11.6667" stroke="#18181B" stroke-width="1.5" stroke-linecap="round" stroke-linejoin="round"/>
</g>
</svg>
